<svg xmlns="http://www.w3.org/2000/svg" xmlns:xlink="http://www.w3.org/1999/xlink" viewBox="0 0 258.74 257.12"><defs><style>.cls-1{fill:url(#blue_gradient);}.cls-2{fill:url(#blue_gradient-2);}.cls-3{fill:#fff;}.cls-4,.cls-5{fill:none;stroke-miterlimit:10;}.cls-4{stroke:#6d6e71;stroke-width:4px;}.cls-5{stroke:#808285;stroke-width:16px;}.cls-6{fill:url(#blue_gradient-3);}.cls-7{fill:url(#blue_gradient-4);}</style><linearGradient id="blue_gradient" x1="29.53" y1="130.77" x2="258.74" y2="130.77" gradientUnits="userSpaceOnUse"><stop offset="0" stop-color="#046aaa"/><stop offset="1" stop-color="#3cbeee"/></linearGradient><linearGradient id="blue_gradient-2" x1="21.33" y1="128.56" x2="221.47" y2="128.56" xlink:href="#blue_gradient"/><linearGradient id="blue_gradient-3" x1="2" y1="128.92" x2="176.4" y2="128.92" xlink:href="#blue_gradient"/><linearGradient id="blue_gradient-4" x1="34.27" y1="88.64" x2="144.13" y2="88.64" xlink:href="#blue_gradient"/></defs><g id="Layer_2" data-name="Layer 2"><g id="Layer_1-2" data-name="Layer 1"><path class="cls-1" d="M250.58,62.68l-114-53.61a14.23,14.23,0,0,0-18.9,6.81L30.87,200.5a14.22,14.22,0,0,0,6.81,18.89l73.22,34.42h65.52l81-172.24A14.2,14.2,0,0,0,250.58,62.68Z"/><path class="cls-2" d="M139.43,255.12,34,231.38A16.21,16.21,0,0,1,21.73,212L66.54,13A16.19,16.19,0,0,1,74.82,2.23L75.25,2H91.43L208.82,28.43a16.22,16.22,0,0,1,12.25,19.36l-44.81,199a16.16,16.16,0,0,1-4.19,7.71l-.59.6Z"/><path class="cls-3" d="M91.2,4,208.38,30.38a14.22,14.22,0,0,1,10.74,17l-44.81,199a14,14,0,0,1-3.67,6.75h-31L34.42,229.43a14.22,14.22,0,0,1-10.74-17l44.81-199A14.15,14.15,0,0,1,75.75,4H91.2m.45-4H74.76l-.87.46a18.18,18.18,0,0,0-9.31,12.1l-44.8,199a18.21,18.21,0,0,0,13.76,21.75L138.77,257l.44.09h33.12l1.18-1.21a18.27,18.27,0,0,0,4.71-8.66l44.8-199a18.22,18.22,0,0,0-13.76-21.75L92.08.1,91.65,0Z"/><rect class="cls-3" x="12" y="11.71" width="154.4" height="232.4" rx="14.2"/><line class="cls-4" x1="27.6" y1="172.55" x2="150.8" y2="172.55"/><line class="cls-5" x1="27.6" y1="188.15" x2="150.8" y2="188.15"/><line class="cls-4" x1="27.6" y1="205.19" x2="150.8" y2="205.19"/><line class="cls-5" x1="27.6" y1="220.79" x2="150.8" y2="220.79"/><line class="cls-4" x1="27.6" y1="141.35" x2="150.8" y2="141.35"/><line class="cls-5" x1="27.6" y1="156.95" x2="150.8" y2="156.95"/><path class="cls-6" d="M26.2,255.12A24.23,24.23,0,0,1,2,230.92v-204A24.23,24.23,0,0,1,26.2,2.72h126a24.23,24.23,0,0,1,24.2,24.2v204a24.23,24.23,0,0,1-24.2,24.2Zm0-240.4A12.22,12.22,0,0,0,14,26.92v204a12.21,12.21,0,0,0,12.2,12.2h126a12.21,12.21,0,0,0,12.2-12.2v-204a12.22,12.22,0,0,0-12.2-12.2Z"/><path class="cls-3" d="M152.2,4.72a22.23,22.23,0,0,1,22.2,22.2v204a22.23,22.23,0,0,1-22.2,22.2H26.2A22.23,22.23,0,0,1,4,230.92v-204A22.23,22.23,0,0,1,26.2,4.72h126m-126,240.4h126a14.22,14.22,0,0,0,14.2-14.2v-204a14.22,14.22,0,0,0-14.2-14.2H26.2A14.22,14.22,0,0,0,12,26.92v204a14.22,14.22,0,0,0,14.2,14.2M152.2.72H26.2A26.23,26.23,0,0,0,0,26.92v204a26.23,26.23,0,0,0,26.2,26.2h126a26.23,26.23,0,0,0,26.2-26.2v-204A26.23,26.23,0,0,0,152.2.72Zm-126,240.4A10.21,10.21,0,0,1,16,230.92v-204a10.22,10.22,0,0,1,10.2-10.2h126a10.22,10.22,0,0,1,10.2,10.2v204a10.21,10.21,0,0,1-10.2,10.2Z"/><path class="cls-3" d="M45.8,143.44l6.38-37.2a5.2,5.2,0,0,0-1.5-4.61l-27-26.35a5.21,5.21,0,0,1,2.89-8.89L63.89,61a5.24,5.24,0,0,0,3.93-2.85l16.7-33.85a5.22,5.22,0,0,1,9.36,0l16.7,33.85A5.24,5.24,0,0,0,114.51,61l37.35,5.43a5.21,5.21,0,0,1,2.89,8.89l-27,26.35a5.2,5.2,0,0,0-1.5,4.61l6.38,37.2a5.21,5.21,0,0,1-7.56,5.5L91.63,131.38a5.22,5.22,0,0,0-4.86,0L53.36,148.94A5.21,5.21,0,0,1,45.8,143.44Zm45.83-21.51,22.3,11.73a5.22,5.22,0,0,0,7.57-5.5l-4.26-24.84a5.2,5.2,0,0,1,1.5-4.61l18-17.59a5.22,5.22,0,0,0-2.89-8.9L109,68.6A5.22,5.22,0,0,1,105,65.75L93.88,43.15a5.22,5.22,0,0,0-9.36,0L73.37,65.75a5.22,5.22,0,0,1-3.93,2.85L44.51,72.22a5.22,5.22,0,0,0-2.89,8.9l18,17.59a5.2,5.2,0,0,1,1.5,4.61L56.9,128.16a5.22,5.22,0,0,0,7.57,5.5l22.3-11.73A5.22,5.22,0,0,1,91.63,121.93Z"/><path class="cls-7" d="M91.91,37.93l14.63,29.66a3,3,0,0,0,2.28,1.65L141.55,74a3,3,0,0,1,1.67,5.15l-23.68,23.08a3,3,0,0,0-.87,2.68l5.59,32.59a3,3,0,0,1-4.38,3.18L90.61,125.29a3.05,3.05,0,0,0-2.82,0L58.52,140.68a3,3,0,0,1-4.38-3.18l5.59-32.59a3,3,0,0,0-.87-2.68L35.18,79.15A3,3,0,0,1,36.86,74l32.72-4.76a3,3,0,0,0,2.28-1.65L86.49,37.93A3,3,0,0,1,91.91,37.93Z"/><circle class="cls-3" cx="172.11" cy="250.81" r="5.71"/></g></g></svg>